Coordinates
version=1
nRows=7
nColumns=40
inDegrees=yes

Units are S.I. units (second, meters, Newtons, ...)
Angles are in degrees.

endheader
time	pelvis_tilt	pelvis_list	pelvis_rotation	pelvis_tx	pelvis_ty	pelvis_tz	hip_flexion_r	hip_adduction_r	hip_rotation_r	knee_angle_r	knee_angle_r_beta	ankle_angle_r	subtalar_angle_r	mtp_angle_r	hip_flexion_l	hip_adduction_l	hip_rotation_l	knee_angle_l	knee_angle_l_beta	ankle_angle_l	subtalar_angle_l	mtp_angle_l	lumbar_extension	lumbar_bending	lumbar_rotation	arm_flex_r	arm_add_r	arm_rot_r	elbow_flex_r	pro_sup_r	wrist_flex_r	wrist_dev_r	arm_flex_l	arm_add_l	arm_rot_l	elbow_flex_l	pro_sup_l	wrist_flex_l	wrist_dev_l
     50.30250000	     -4.20383068	     -3.72423280	      3.55181963	      0.99436998	      0.92481442	      0.42258241	      1.89438067	     -2.98894296	    -15.13375313	     29.44619473	     29.44619473	     14.79525736	     -0.67768275	     -8.56330590	     25.52756982	     -2.94206797	     -3.71614011	     23.80734168	     23.80734168	      6.82428292	    -12.48586526	      3.73010670	     -6.41252716	      5.27850649	      4.54335195	     31.39915362	    -17.47763813	    -10.30715942	     92.14163178	     44.66087547	      0.00000000	      0.00000000	     -6.99369906	     -6.76279343	     10.30168950	     24.68225464	     44.34558019	      0.00000000	      0.00000000
     50.31457143	     -4.13714386	     -3.66363113	      3.18198550	      0.99442257	      0.92572769	      0.42041614	      3.55659549	     -3.74475336	    -14.38951668	     33.29646783	     33.29646783	     13.38324892	     -2.29192228	     -9.60367504	     24.81871507	     -2.95870257	     -4.31008958	     23.74456794	     23.74456794	      7.41776276	    -12.08628700	      3.28448362	     -6.43113221	      5.16998798	      4.60410881	     29.52805899	    -17.16412299	    -10.16376755	     90.31190218	     44.71277004	      0.00000000	      0.00000000	     -5.81529560	     -6.93070942	     10.12632805	     25.26188960	     44.40564542	      0.00000000	      0.00000000
     50.32664286	     -4.15504563	     -3.66601988	      2.79676851	      0.99426401	      0.92638430	      0.41857218	      5.52234328	     -4.32750621	    -13.44185310	     37.32738233	     37.32738233	     11.70380141	     -4.34577558	    -10.60166461	     24.21550543	     -3.06841404	     -4.93856223	     23.67777549	     23.67777549	      7.92436671	    -11.50076146	      2.71570576	     -6.31450794	      5.06170614	      4.69237325	     27.71832630	    -16.86962785	    -10.02066548	     88.04395734	     44.78070746	      0.00000000	      0.00000000	     -4.68894299	     -7.13423275	      9.84440619	     25.98695779	     44.48419419	      0.00000000	      0.00000000
     50.33871429	     -4.02035669	     -3.55238277	      2.39372384	      0.99407962	      0.92704378	      0.41682968	      7.43706561	     -5.04004430	    -12.62778674	     41.46173736	     41.46173736	     10.13060062	     -6.14023752	    -11.06532269	     23.44663633	     -3.05857576	     -5.61773086	     23.63603575	     23.63603575	      8.46822919	    -11.08747612	      2.18507882	     -6.43259156	      4.85226127	      4.61329984	     25.86873536	    -16.37979625	     -9.69128376	     86.14039180	     44.82817954	      0.00000000	      0.00000000	     -3.47135694	     -7.43576009	      9.57894509	     26.71187120	     44.55550190	      0.00000000	      0.00000000
     50.35078571	     -3.96339539	     -3.45200402	      1.99865559	      0.99371502	      0.92748162	      0.41519385	      9.55531301	     -5.65346384	    -11.75352746	     45.58645910	     45.58645910	      8.59874455	     -8.01463318	    -11.08527669	     22.76987893	     -3.04715205	     -6.23175037	     23.57714665	     23.57714665	      8.95167693	    -10.61951811	      1.62689044	     -6.44591141	      4.67380124	      4.53907764	     23.98757908	    -15.96440497	     -9.32204004	     84.06905882	     44.87929378	      0.00000000	      0.00000000	     -2.23240206	     -7.76728821	      9.27303912	     27.52219490	     44.63101040	      0.00000000	      0.00000000
     50.36285714	     -3.90526013	     -3.32186735	      1.64611577	      0.99317055	      0.92783281	      0.41365904	     11.73574483	     -6.22132797	    -10.91841886	     49.60512473	     49.60512473	      7.21994630	     -9.82158163	    -10.71795271	     22.11996386	     -2.99316409	     -6.84396644	     23.52763173	     23.52763173	      9.39394943	    -10.17253991	      1.07057349	     -6.48875541	      4.42756496	      4.41948405	     22.08436223	    -15.53908974	     -8.89165071	     81.93304711	     44.92987127	      0.00000000	      0.00000000	     -0.93107602	     -8.14957346	      8.94447452	     28.37448470	     44.70833312	      0.00000000	      0.00000000
     50.37492857	     -3.91321075	     -3.28133119	      1.31354544	      0.99249037	      0.92806500	      0.41223185	     14.02612621	     -6.57327946	    -10.05770989	     53.42276588	     53.42276588	      6.11905695	    -11.55338744	     -9.73484036	     21.52418323	     -3.02996713	     -7.43382413	     23.40870968	     23.40870968	      9.80219040	     -9.59154800	      0.37706260	     -6.41655113	      4.30126752	      4.32032497	     20.31072371	    -15.27701077	     -8.41659001	     79.18591565	     45.00071548	      0.00000000	      0.00000000	      0.29910725	     -8.50970502	      8.48484979	     29.38972373	     44.80460982	      0.00000000	      0.00000000
